<svg width="1060" height="238" viewBox="0 0 1060 238" fill="none" xmlns="http://www.w3.org/2000/svg">
<mask id="mask0_1_4" style="mask-type:luminance" maskUnits="userSpaceOnUse" x="0" y="0" width="1060" height="238">
<path d="M1030 0H30C13.4315 0 0 13.4315 0 30V208C0 224.569 13.4315 238 30 238H1030C1046.57 238 1060 224.569 1060 208V30C1060 13.4315 1046.57 0 1030 0Z" fill="white"/>
</mask>
<g mask="url(#mask0_1_4)">
<path d="M1030 0H30C13.4315 0 0 13.4315 0 30V208C0 224.569 13.4315 238 30 238H1030C1046.57 238 1060 224.569 1060 208V30C1060 13.4315 1046.57 0 1030 0Z" fill="#1A4942"/>
<path d="M44.8814 333.762C93.417 333.762 132.763 294.417 132.763 245.881C132.763 197.345 93.417 158 44.8814 158C-3.65416 158 -43 197.345 -43 245.881C-43 294.417 -3.65416 333.762 44.8814 333.762Z" fill="#35644B"/>
<path d="M400.881 87.7628C449.417 87.7628 488.762 48.417 488.762 -0.118599C488.762 -48.6542 449.417 -88 400.881 -88C352.345 -88 313 -48.6542 313 -0.118599C313 48.417 352.345 87.7628 400.881 87.7628Z" fill="#35644B"/>
<path d="M623.881 355.762C672.417 355.762 711.762 316.417 711.762 267.881C711.762 219.345 672.417 180 623.881 180C575.345 180 536 219.345 536 267.881C536 316.417 575.345 355.762 623.881 355.762Z" fill="#35644B"/>
<path d="M1031.88 105.763C1080.42 105.763 1119.76 66.417 1119.76 17.8814C1119.76 -30.6542 1080.42 -70 1031.88 -70C983.344 -70 943.999 -30.6542 943.999 17.8814C943.999 66.417 983.344 105.763 1031.88 105.763Z" fill="#35644B"/>
</g>
</svg>
