<svg width="600" height="163" viewBox="0 0 600 163" fill="none" xmlns="http://www.w3.org/2000/svg">
<path fill-rule="evenodd" clip-rule="evenodd" d="M91.9971 0H91.9984C108.399 0 121.817 11.8149 121.817 26.2553V135.762C121.817 150.203 108.398 162.016 91.9984 162.016H91.9971C75.5962 162.016 62.1785 150.202 62.1785 135.762V26.2553C62.1785 11.8149 75.5974 0 91.9971 0ZM115.828 50.0955C116.451 50.0955 116.96 49.6472 116.96 49.0988V23.2201C116.999 22.4272 117.009 21.6353 116.96 20.8611V20.8049L116.955 20.7972C116.79 18.3303 116.019 16.0307 113.644 14.3314C111.026 12.4581 107.381 12.4085 107.381 12.4085C114.696 16.9713 114.318 20.4239 114.696 21.1882V49.0988C114.696 49.6472 115.205 50.0955 115.828 50.0955ZM115.81 112.563C116.433 112.563 116.942 113.011 116.942 113.56V139.438C116.981 140.231 116.991 141.023 116.942 141.797V141.854L116.937 141.861C116.772 144.328 116.002 146.628 113.627 148.327C111.009 150.2 107.364 150.25 107.364 150.25C114.678 145.687 114.301 142.235 114.678 141.47V113.56C114.678 113.011 115.188 112.563 115.81 112.563Z" fill="white"/>
<path fill-rule="evenodd" clip-rule="evenodd" d="M0 81.0062V81.0073C0 95.4477 13.419 107.261 29.8186 107.261H154.193C170.594 107.261 184.013 95.4466 184.013 81.0073V81.0062C184.013 66.5657 170.594 54.752 154.193 54.752H29.8186C13.4177 54.752 0 66.5668 0 81.0062ZM56.8967 101.988V101.99C56.8967 102.538 56.3876 102.985 55.7647 102.985H26.3726C25.472 103.019 24.5726 103.028 23.6933 102.985H23.6295L23.6208 102.981C20.8189 102.835 18.2071 102.157 16.2771 100.066C14.1494 97.7605 14.0932 94.5512 14.0932 94.5512C19.2754 100.992 23.1967 100.659 24.0648 100.992H55.7647C56.3876 100.992 56.8967 101.44 56.8967 101.988ZM127.844 101.973C127.844 102.521 128.353 102.97 128.976 102.97H158.368C159.269 103.004 160.168 103.013 161.047 102.97H161.111L161.12 102.965C163.922 102.82 166.534 102.141 168.464 100.05C170.591 97.745 170.648 94.5358 170.648 94.5358C165.465 100.976 161.544 100.644 160.676 100.976H128.976C128.353 100.976 127.844 101.425 127.844 101.973Z" fill="#40B36E"/>
<path d="M226.112 61.5418V69.443H215.385V102.028H205.523V69.443H194.796V61.5418H226.112Z" fill="white"/>
<path d="M259.473 69.5006C263.164 69.5006 266.125 70.731 268.355 73.1917C270.585 75.6139 271.7 78.9589 271.7 83.2266V102.028H261.896V84.5531C261.896 82.4 261.338 80.7275 260.223 79.5356C259.108 78.3437 257.609 77.7478 255.725 77.7478C253.841 77.7478 252.341 78.3437 251.226 79.5356C250.111 80.7275 249.554 82.4 249.554 84.5531V102.028H239.692V59.3503H249.554V74.1721C250.553 72.7495 251.918 71.6153 253.648 70.7694C255.379 69.9236 257.32 69.5006 259.473 69.5006Z" fill="white"/>
<path d="M312.993 85.4182C312.993 86.341 312.935 87.3022 312.82 88.3018H290.5C290.654 90.3011 291.289 91.8391 292.404 92.9156C293.557 93.9537 294.96 94.4728 296.614 94.4728C299.074 94.4728 300.785 93.4347 301.747 91.3584H312.243C311.705 93.4731 310.724 95.3763 309.302 97.068C307.917 98.7597 306.168 100.086 304.053 101.047C301.939 102.009 299.574 102.489 296.96 102.489C293.807 102.489 291 101.816 288.54 100.471C286.079 99.125 284.156 97.2026 282.772 94.7034C281.388 92.2043 280.696 89.2822 280.696 85.9372C280.696 82.5923 281.369 79.6702 282.715 77.1711C284.099 74.6719 286.021 72.7495 288.482 71.4038C290.943 70.0581 293.769 69.3853 296.96 69.3853C300.074 69.3853 302.842 70.0389 305.265 71.3461C307.687 72.6534 309.571 74.5181 310.916 76.9404C312.301 79.3626 312.993 82.1885 312.993 85.4182ZM302.9 82.8229C302.9 81.1312 302.323 79.7855 301.17 78.7859C300.016 77.7862 298.575 77.2864 296.844 77.2864C295.191 77.2864 293.788 77.767 292.634 78.7282C291.519 79.6894 290.827 81.0543 290.558 82.8229H302.9Z" fill="white"/>
<path d="M332.885 75.2102C334.038 73.4416 335.48 72.0574 337.21 71.0578C338.94 70.0197 340.863 69.5006 342.977 69.5006V79.9393H340.267C337.806 79.9393 335.961 80.4776 334.73 81.5542C333.5 82.5923 332.885 84.4378 332.885 87.0907V102.028H323.023V69.8467H332.885V75.2102Z" fill="white"/>
<path d="M347.482 85.8796C347.482 82.573 348.097 79.6702 349.328 77.1711C350.596 74.6719 352.307 72.7495 354.46 71.4038C356.613 70.0581 359.016 69.3853 361.669 69.3853C363.938 69.3853 365.918 69.8467 367.61 70.7694C369.34 71.6922 370.666 72.9033 371.589 74.4028V69.8467H381.451V102.028H371.589V97.4717C370.628 98.9712 369.282 100.182 367.552 101.105C365.86 102.028 363.88 102.489 361.612 102.489C358.997 102.489 356.613 101.816 354.46 100.471C352.307 99.0865 350.596 97.1449 349.328 94.6458C348.097 92.1082 347.482 89.1861 347.482 85.8796ZM371.589 85.9372C371.589 83.4766 370.897 81.5349 369.513 80.1123C368.167 78.6898 366.514 77.9785 364.553 77.9785C362.592 77.9785 360.92 78.6898 359.536 80.1123C358.19 81.4965 357.517 83.4189 357.517 85.8796C357.517 88.3403 358.19 90.3011 359.536 91.7622C360.92 93.1847 362.592 93.896 364.553 93.896C366.514 93.896 368.167 93.1847 369.513 91.7622C370.897 90.3396 371.589 88.3979 371.589 85.9372Z" fill="white"/>
<path d="M402.652 102.489C399.846 102.489 397.347 102.009 395.155 101.047C392.963 100.086 391.233 98.779 389.964 97.1257C388.696 95.434 387.984 93.55 387.831 91.4738H397.577C397.693 92.5888 398.212 93.4923 399.134 94.1844C400.057 94.8765 401.191 95.2225 402.537 95.2225C403.767 95.2225 404.709 94.9918 405.363 94.5304C406.055 94.0306 406.401 93.3962 406.401 92.6272C406.401 91.7045 405.921 91.0316 404.959 90.6087C403.998 90.1473 402.441 89.6475 400.288 89.1092C397.981 88.571 396.059 88.0135 394.521 87.4367C392.983 86.8216 391.656 85.8796 390.541 84.6108C389.426 83.3035 388.869 81.5542 388.869 79.3626C388.869 77.5171 389.369 75.8446 390.368 74.3451C391.406 72.8072 392.906 71.5961 394.867 70.7117C396.866 69.8274 399.231 69.3853 401.96 69.3853C405.997 69.3853 409.169 70.3849 411.476 72.3842C413.822 74.3836 415.167 77.0365 415.513 80.343H406.401C406.247 79.228 405.747 78.3437 404.902 77.6901C404.094 77.0365 403.018 76.7097 401.672 76.7097C400.519 76.7097 399.634 76.9404 399.019 77.4017C398.404 77.8247 398.096 78.4206 398.096 79.1896C398.096 80.1123 398.577 80.8044 399.538 81.2658C400.538 81.7272 402.076 82.1885 404.152 82.6499C406.536 83.2651 408.477 83.8803 409.977 84.4954C411.476 85.0722 412.784 86.0334 413.899 87.3791C415.052 88.6863 415.648 90.4549 415.686 92.6849C415.686 94.5689 415.148 96.2606 414.072 97.7601C413.033 99.2211 411.515 100.375 409.515 101.22C407.555 102.066 405.267 102.489 402.652 102.489Z" fill="white"/>
<path d="M470.896 69.8467L462.188 102.028H451.288L446.212 81.1504L440.964 102.028H430.122L421.356 69.8467H431.218L435.774 92.8579L441.195 69.8467H451.634L457.112 92.7426L461.611 69.8467H470.896Z" fill="white"/>
<path d="M491.412 66.5017C489.682 66.5017 488.26 66.0018 487.145 65.0022C486.068 63.9641 485.53 62.6953 485.53 61.1958C485.53 59.6579 486.068 58.3891 487.145 57.3894C488.26 56.3513 489.682 55.8323 491.412 55.8323C493.104 55.8323 494.488 56.3513 495.565 57.3894C496.68 58.3891 497.237 59.6579 497.237 61.1958C497.237 62.6953 496.68 63.9641 495.565 65.0022C494.488 66.0018 493.104 66.5017 491.412 66.5017ZM496.315 69.8467V102.028H486.453V69.8467H496.315Z" fill="white"/>
<path d="M521.402 78.0361H516.096V102.028H506.234V78.0361H502.658V69.8467H506.234V68.9239C506.234 64.9637 507.368 61.9648 509.637 59.927C511.905 57.8508 515.231 56.8127 519.614 56.8127C520.344 56.8127 520.883 56.8319 521.229 56.8704V65.2329C519.345 65.1175 518.018 65.3867 517.249 66.0403C516.48 66.6939 516.096 67.8666 516.096 69.5583V69.8467H521.402V78.0361Z" fill="white"/>
<path d="M551.439 93.6653V102.028H546.421C542.845 102.028 540.058 101.163 538.059 99.4326C536.059 97.664 535.06 94.7996 535.06 90.8394V78.0361H531.138V69.8467H535.06V62.0032H544.922V69.8467H551.381V78.0361H544.922V90.9547C544.922 91.9159 545.152 92.608 545.614 93.0309C546.075 93.4539 546.844 93.6653 547.921 93.6653H551.439Z" fill="white"/>
<path d="M570.061 98.4616C571.434 98.4616 572.567 98.6333 573.46 98.9766C574.36 99.3123 575.032 99.8273 575.474 100.522C575.917 101.216 576.138 102.101 576.138 103.177C576.138 104.062 575.978 104.802 575.657 105.397C575.337 105.985 574.917 106.461 574.398 106.828C573.88 107.194 573.326 107.476 572.739 107.675L577.328 115.194H575.062L570.965 108.213H567.486V115.194H565.54V98.4616H570.061ZM569.946 100.144H567.486V106.564H570.141C571.507 106.564 572.51 106.286 573.151 105.729C573.799 105.172 574.124 104.352 574.124 103.268C574.124 102.132 573.78 101.327 573.094 100.854C572.415 100.38 571.366 100.144 569.946 100.144ZM591.176 115.194H588.968L584.447 107.823L579.858 115.194H577.786L583.36 106.473L578.175 98.4616H580.338L584.516 105.134L588.716 98.4616H590.776L585.603 106.439L591.176 115.194Z" fill="#40B36E"/>
</svg>
